<?xml version="1.0" encoding="UTF-8"?>
<svg xmlns="http://www.w3.org/2000/svg" version="1.1" viewBox="0 0 250 100">
  <defs>
    <style>
      .cls-1 {
        fill: #fff;
      }
    </style>
  </defs>
  <!-- Generator: Adobe Illustrator 28.6.0, SVG Export Plug-In . SVG Version: 1.2.0 Build 709)  -->
  <g>
    <g id="Capa_1">
      <g>
        <g>
          <path class="cls-1" d="M84.67,15.41l-8.87,25.51h3.62l2.66-7.83h10.4l2.67,7.83h3.65l-8.88-25.51h-5.24ZM83.09,30.12l4.18-12.3,4.19,12.3h-8.37Z"/>
          <path class="cls-1" d="M108.29,15.41l-8.88,25.51h3.62l2.66-7.83h10.4l2.66,7.83h3.65l-8.88-25.51h-5.24ZM106.7,30.12l4.18-12.3,4.19,12.3h-8.37Z"/>
          <rect class="cls-1" x="125.54" y="15.41" width="3.65" height="25.51"/>
          <path class="cls-1" d="M149.47,17.27c-1.79-1.42-4.43-2.13-7.92-2.13-1.25,0-2.44.06-3.57.18-1.13.12-2.24.28-3.34.49v25.11h3.66v-8.2c.54.04,1.05.08,1.54.1.49.03,1,.04,1.54.04,3.65,0,6.36-.76,8.13-2.27,1.76-1.51,2.65-3.71,2.65-6.61,0-3.06-.9-5.29-2.68-6.71ZM146.86,28.55c-1.13.96-2.94,1.45-5.43,1.45-.58,0-1.11-.01-1.61-.04-.5-.03-1.01-.08-1.52-.15v-11.53c.55-.09,1.11-.16,1.68-.21.57-.05,1.19-.07,1.85-.07,2.28,0,3.96.48,5.07,1.43,1.1.95,1.65,2.49,1.65,4.6s-.56,3.55-1.69,4.52Z"/>
        </g>
        <polygon class="cls-1" points="78.24 54.7 78.24 47.24 75.46 47.24 75.46 46.21 82.25 46.21 82.25 47.24 79.46 47.24 79.46 54.7 78.24 54.7"/>
        <path class="cls-1" d="M82.81,54.7v-6.25h.99l.1.83h.06c.2-.3.46-.52.77-.67.31-.15.65-.22,1-.22.09,0,.18,0,.26.01.08,0,.16.02.23.03v1.1c-.09-.02-.18-.03-.28-.03-.1,0-.19,0-.29,0-.2,0-.4.03-.61.09s-.4.15-.59.27c-.19.12-.34.27-.47.44v4.42h-1.2Z"/>
        <path class="cls-1" d="M88.95,54.81c-.61,0-1.08-.15-1.42-.46-.35-.31-.52-.73-.52-1.27s.19-.99.56-1.3.98-.51,1.8-.58l1.57-.16.12.73-1.59.16c-.45.04-.78.15-.97.32-.2.17-.29.41-.29.71s.09.55.27.72c.18.17.45.25.8.25.24,0,.49-.05.73-.15.24-.1.46-.26.66-.5v-2.62c0-.35-.06-.62-.17-.82-.11-.2-.28-.33-.51-.41-.23-.08-.52-.12-.88-.12-.24,0-.51.02-.81.06-.3.04-.59.11-.88.21v-.94c.28-.09.59-.16.92-.2.34-.05.65-.07.95-.07.57,0,1.04.07,1.42.22.38.15.66.39.84.74.19.34.28.81.28,1.41v3.97h-.99l-.09-.67h-.07c-.2.26-.45.45-.76.58-.31.13-.64.2-1,.2"/>
        <path class="cls-1" d="M93.87,54.7v-6.25h1l.09.68h.07c.24-.25.53-.45.86-.58.33-.13.69-.2,1.06-.2.4,0,.75.07,1.06.22.31.15.55.39.73.72.17.34.26.78.26,1.34v4.05h-1.2v-3.99c0-.49-.11-.83-.32-1.02-.21-.19-.5-.29-.86-.29-.17,0-.35.03-.53.07-.19.05-.37.13-.55.24-.18.11-.33.25-.47.43v4.56h-1.2Z"/>
        <path class="cls-1" d="M102.59,54.82c-.32,0-.64-.02-.94-.07-.3-.04-.59-.11-.87-.19v-.92c.31.09.61.15.91.2.29.04.6.07.9.07.5,0,.86-.08,1.08-.24.22-.16.33-.39.33-.68,0-.25-.06-.43-.19-.56-.13-.13-.34-.22-.65-.29l-.9-.18c-.58-.12-.99-.32-1.24-.61-.25-.29-.38-.66-.38-1.12,0-.55.22-1,.65-1.34.43-.35,1.09-.52,1.98-.52.28,0,.54.02.8.05.26.03.5.08.73.14v.92c-.25-.07-.5-.12-.74-.15-.24-.03-.5-.05-.76-.05-.38,0-.68.04-.9.12-.22.08-.38.19-.47.33-.09.14-.14.29-.14.46,0,.21.06.38.18.52.12.14.33.24.64.31l.9.17c.57.12.99.31,1.25.58.26.27.39.66.39,1.15,0,.58-.22,1.04-.65,1.38-.43.34-1.06.51-1.89.51"/>
        <path class="cls-1" d="M106.75,57.23v-8.77h1.02l.08.68h.06c.19-.23.42-.42.71-.57.29-.14.62-.21.99-.21.45,0,.87.1,1.24.3.38.2.68.53.91.98s.34,1.06.34,1.82-.12,1.36-.37,1.86c-.25.5-.61.87-1.09,1.12-.48.25-1.07.38-1.78.38-.16,0-.32,0-.48-.02-.16-.01-.31-.03-.45-.05v2.48h-1.2ZM108.89,53.87c.66,0,1.17-.18,1.5-.54.33-.36.5-.95.5-1.77,0-.57-.07-1.01-.2-1.33-.14-.32-.32-.54-.56-.67-.24-.13-.51-.2-.82-.2-.25,0-.49.05-.74.16-.24.11-.45.28-.62.51v3.74c.13.03.27.06.44.07.17.02.33.03.49.03"/>
        <path class="cls-1" d="M115.46,54.81c-.61,0-1.08-.15-1.42-.46-.35-.31-.52-.73-.52-1.27s.19-.99.56-1.3.98-.51,1.8-.58l1.57-.16.12.73-1.59.16c-.45.04-.78.15-.97.32-.2.17-.29.41-.29.71s.09.55.27.72c.18.17.45.25.8.25.24,0,.49-.05.73-.15.24-.1.46-.26.66-.5v-2.62c0-.35-.06-.62-.17-.82-.11-.2-.28-.33-.51-.41-.23-.08-.52-.12-.88-.12-.24,0-.51.02-.81.06-.3.04-.59.11-.88.21v-.94c.28-.09.59-.16.92-.2.34-.05.65-.07.95-.07.57,0,1.04.07,1.42.22.38.15.66.39.84.74.19.34.28.81.28,1.41v3.97h-.99l-.09-.67h-.07c-.2.26-.45.45-.76.58-.31.13-.64.2-1,.2"/>
        <path class="cls-1" d="M120.38,54.7v-6.25h.99l.1.83h.06c.2-.3.46-.52.77-.67.32-.15.65-.22,1-.22.09,0,.18,0,.26.01.09,0,.16.02.24.03v1.1c-.09-.02-.18-.03-.28-.03-.09,0-.19,0-.29,0-.2,0-.4.03-.61.09-.21.06-.4.15-.59.27-.18.12-.34.27-.46.44v4.42h-1.2Z"/>
        <path class="cls-1" d="M127.8,54.82c-.69,0-1.27-.11-1.73-.33-.46-.22-.81-.57-1.04-1.05-.23-.48-.34-1.1-.34-1.86,0-.72.11-1.32.32-1.79.21-.48.52-.83.91-1.07.39-.24.87-.35,1.41-.35s.99.12,1.36.35c.37.24.66.6.85,1.08.19.48.29,1.09.29,1.82v.35h-4.48v-.76h3.58l-.23.13c0-.53-.05-.95-.16-1.26-.11-.32-.26-.54-.47-.68-.21-.14-.46-.2-.75-.2s-.55.07-.76.2-.38.36-.49.67c-.12.31-.17.74-.17,1.27v.45c0,.52.07.93.21,1.24.14.31.36.53.67.66.3.13.69.2,1.18.2.24,0,.49-.02.75-.06.26-.04.53-.1.81-.17v.94c-.31.09-.61.15-.88.18-.28.04-.56.06-.83.06"/>
        <path class="cls-1" d="M131.51,54.7v-6.25h1l.09.68h.07c.25-.25.53-.45.86-.58.33-.13.69-.2,1.06-.2.4,0,.75.07,1.06.22.31.15.55.39.73.72.17.34.26.78.26,1.34v4.05h-1.2v-3.99c0-.49-.11-.83-.32-1.02-.21-.19-.5-.29-.86-.29-.17,0-.35.03-.53.07-.19.05-.37.13-.55.24-.18.11-.33.25-.47.43v4.56h-1.2Z"/>
        <path class="cls-1" d="M141.23,54.82c-.63,0-1.16-.12-1.59-.34-.43-.23-.76-.58-.99-1.06-.23-.47-.34-1.08-.34-1.83s.12-1.36.37-1.84c.24-.47.6-.82,1.06-1.05.47-.23,1.04-.34,1.71-.34.23,0,.45.01.68.04.22.03.43.06.64.12v.99c-.2-.05-.4-.09-.59-.11-.2-.03-.39-.04-.58-.04-.46,0-.84.07-1.14.22-.3.15-.53.38-.68.7-.15.32-.22.75-.22,1.3s.07.99.21,1.32c.14.33.35.57.62.71.28.14.61.22,1.02.22.2,0,.4-.02.62-.06.22-.04.46-.1.73-.18v.98c-.24.08-.49.14-.75.19-.26.05-.52.07-.78.07"/>
        <path class="cls-1" d="M144.92,47.24c-.26,0-.46-.06-.59-.18-.14-.12-.2-.29-.2-.51s.07-.39.2-.52c.13-.12.33-.18.59-.18s.46.06.6.18c.13.12.2.3.2.52s-.07.38-.2.51c-.13.12-.33.18-.6.18M144.32,48.46h1.2v6.25h-1.2v-6.25Z"/>
        <path class="cls-1" d="M149.19,54.81c-.61,0-1.08-.15-1.42-.46-.35-.31-.52-.73-.52-1.27s.19-.99.56-1.3c.38-.31.98-.51,1.8-.58l1.57-.16.12.73-1.59.16c-.45.04-.78.15-.97.32-.2.17-.29.41-.29.71s.09.55.27.72c.18.17.45.25.8.25.24,0,.49-.05.73-.15.24-.1.46-.26.66-.5v-2.62c0-.35-.06-.62-.17-.82-.11-.2-.28-.33-.51-.41-.23-.08-.52-.12-.88-.12-.24,0-.51.02-.81.06-.3.04-.59.11-.88.21v-.94c.28-.09.59-.16.92-.2.34-.05.65-.07.95-.07.57,0,1.04.07,1.42.22.38.15.66.39.84.74.19.34.28.81.28,1.41v3.97h-.99l-.09-.67h-.07c-.2.26-.45.45-.76.58-.31.13-.64.2-1,.2"/>
        <path class="cls-1" d="M75.52,68.48l2.96-8.5h1.74l2.96,8.5h-1.22l-2.7-7.94h.17l-2.7,7.94h-1.2ZM77.21,65.88l.28-.99h3.71l.28.99h-4.27Z"/>
        <path class="cls-1" d="M86.7,68.6c-.63,0-1.16-.12-1.59-.34-.43-.23-.76-.58-.99-1.06-.23-.47-.34-1.08-.34-1.83s.12-1.36.37-1.84c.24-.47.6-.82,1.06-1.05.47-.23,1.04-.34,1.71-.34.23,0,.45.01.68.04.22.03.43.06.64.12v.99c-.2-.05-.4-.09-.59-.11-.2-.03-.39-.04-.58-.04-.46,0-.84.07-1.14.22-.3.15-.53.38-.68.7-.15.32-.22.75-.22,1.3s.07.99.21,1.32c.14.33.35.57.62.71.28.14.61.22,1.02.22.2,0,.4-.02.62-.06.22-.04.46-.1.73-.18v.98c-.24.08-.49.14-.75.19-.26.05-.52.07-.78.07"/>
        <path class="cls-1" d="M91.81,68.6c-.63,0-1.15-.12-1.59-.34-.43-.23-.76-.58-.99-1.06-.23-.47-.34-1.08-.34-1.83s.12-1.36.37-1.84c.24-.47.6-.82,1.06-1.05.47-.23,1.04-.34,1.71-.34.23,0,.45.01.68.04.22.03.43.06.64.12v.99c-.2-.05-.4-.09-.59-.11-.2-.03-.39-.04-.58-.04-.46,0-.84.07-1.14.22-.3.15-.53.38-.68.7-.15.32-.22.75-.22,1.3s.07.99.21,1.32c.14.33.35.57.62.71.28.14.61.22,1.02.22.2,0,.4-.02.62-.06.22-.04.46-.1.73-.18v.98c-.24.08-.49.14-.75.19-.26.05-.52.07-.78.07"/>
        <path class="cls-1" d="M97.11,68.6c-.69,0-1.27-.11-1.73-.33-.46-.22-.81-.57-1.04-1.05-.23-.48-.35-1.1-.35-1.86,0-.72.11-1.32.32-1.79.21-.48.52-.83.91-1.07.39-.24.86-.35,1.41-.35s.99.12,1.36.35c.37.24.66.6.85,1.08.19.48.29,1.09.29,1.82v.35h-4.48v-.76h3.58l-.23.13c0-.53-.05-.95-.16-1.26-.11-.32-.26-.54-.47-.68-.2-.14-.46-.2-.75-.2s-.55.07-.76.2c-.21.13-.38.36-.49.67-.12.31-.17.74-.17,1.27v.45c0,.52.07.93.21,1.24.14.31.36.53.66.66.3.13.69.2,1.18.2.24,0,.49-.02.75-.06.26-.04.53-.1.81-.17v.94c-.31.09-.6.15-.88.18-.28.04-.56.06-.83.06"/>
        <path class="cls-1" d="M101.97,68.6c-.32,0-.64-.02-.94-.07-.3-.04-.59-.11-.87-.19v-.92c.31.09.61.15.91.2.29.04.6.07.9.07.5,0,.86-.08,1.08-.24.22-.16.33-.39.33-.68,0-.25-.06-.43-.19-.56-.13-.13-.34-.22-.65-.29l-.9-.18c-.58-.12-.99-.32-1.24-.61-.25-.29-.38-.66-.38-1.12,0-.55.22-1,.65-1.34.43-.35,1.09-.52,1.98-.52.28,0,.54.02.8.05.26.03.5.08.73.14v.92c-.25-.07-.5-.12-.74-.15-.24-.03-.5-.05-.76-.05-.38,0-.68.04-.9.12-.22.08-.38.19-.47.33-.09.14-.14.29-.14.46,0,.21.06.38.18.52.12.14.33.24.64.31l.9.17c.57.12.99.31,1.25.58.26.27.39.66.39,1.15,0,.58-.22,1.04-.65,1.38-.43.34-1.06.51-1.89.51"/>
        <path class="cls-1" d="M108.15,68.6c-.56,0-1.05-.12-1.47-.35-.41-.23-.74-.58-.97-1.06-.23-.48-.34-1.08-.34-1.83s.11-1.36.34-1.83c.23-.47.55-.83.96-1.06.41-.23.91-.35,1.48-.35s1.06.12,1.48.35c.41.23.74.58.96,1.06.23.47.34,1.08.34,1.83s-.11,1.35-.34,1.82c-.23.48-.55.83-.97,1.06-.42.23-.91.35-1.47.35M108.15,67.65c.32,0,.6-.07.83-.21.23-.14.41-.38.54-.71.13-.33.19-.78.19-1.36s-.06-1.04-.19-1.37c-.13-.33-.31-.57-.54-.71-.23-.14-.51-.21-.83-.21s-.6.07-.83.21c-.23.14-.41.37-.54.7-.13.33-.19.78-.19,1.36s.06,1.04.19,1.37.3.57.54.71c.24.14.52.21.84.21"/>
        <path class="cls-1" d="M116.66,68.59c-.61,0-1.08-.15-1.42-.46-.34-.31-.51-.73-.51-1.27s.19-.99.56-1.3c.38-.31.98-.51,1.8-.58l1.57-.16.12.73-1.58.16c-.45.04-.78.15-.97.32-.2.17-.3.41-.3.71s.09.55.27.72c.18.17.45.25.8.25.24,0,.49-.05.73-.15.25-.1.47-.26.66-.5v-2.62c0-.35-.06-.63-.17-.82-.11-.2-.28-.33-.51-.41-.23-.08-.52-.12-.88-.12-.24,0-.51.02-.8.06-.3.04-.59.11-.89.21v-.94c.28-.09.59-.16.92-.2.34-.05.65-.07.95-.07.57,0,1.04.07,1.42.22.38.15.66.39.84.74.19.34.28.81.28,1.41v3.97h-.99l-.09-.67h-.07c-.2.26-.45.45-.76.58-.31.13-.64.2-1,.2"/>
        <rect class="cls-1" x="123.96" y="59.21" width="1.2" height="9.28"/>
        <path class="cls-1" d="M128.38,68.59c-.61,0-1.08-.15-1.42-.46-.34-.31-.51-.73-.51-1.27s.19-.99.56-1.3c.38-.31.98-.51,1.8-.58l1.57-.16.12.73-1.58.16c-.45.04-.78.15-.97.32-.2.17-.3.41-.3.71s.09.55.27.72c.18.17.45.25.8.25.24,0,.49-.05.73-.15.25-.1.47-.26.66-.5v-2.62c0-.35-.06-.63-.17-.82-.11-.2-.28-.33-.51-.41-.23-.08-.52-.12-.88-.12-.24,0-.51.02-.8.06-.3.04-.59.11-.89.21v-.94c.28-.09.59-.16.92-.2.34-.05.65-.07.95-.07.57,0,1.04.07,1.42.22.38.15.66.39.84.74.19.34.28.81.28,1.41v3.97h-.99l-.09-.67h-.07c-.2.26-.45.45-.76.58-.31.13-.64.2-1,.2"/>
        <rect class="cls-1" x="135.77" y="59.99" width="1.22" height="8.5"/>
        <path class="cls-1" d="M138.71,68.48v-6.25h1l.09.68h.07c.25-.25.54-.45.87-.58.33-.13.68-.2,1.05-.2.4,0,.75.07,1.06.22.31.15.55.39.72.72.17.34.26.78.26,1.34v4.05h-1.2v-3.99c0-.49-.11-.83-.32-1.02-.21-.19-.5-.29-.86-.29-.17,0-.35.03-.53.07-.19.05-.37.13-.55.24-.17.11-.33.25-.46.42v4.56h-1.2Z"/>
        <path class="cls-1" d="M144.7,62.24h4.18v.97h-4.18v-.97ZM145.82,68.48v-7.03c0-.51.09-.94.28-1.29.18-.35.46-.62.82-.8.36-.18.81-.27,1.34-.27.14,0,.29,0,.44.02.14.01.29.03.43.05v.98c-.12-.02-.24-.04-.36-.05-.12,0-.24-.01-.36-.01-.47,0-.82.1-1.05.31-.23.2-.34.54-.34,1.01v7.09h-1.19Z"/>
        <path class="cls-1" d="M152.04,68.6c-.56,0-1.05-.12-1.47-.35-.42-.23-.74-.58-.97-1.06-.23-.48-.35-1.08-.35-1.83s.12-1.36.34-1.83c.23-.47.55-.83.96-1.06.42-.23.91-.35,1.48-.35s1.06.12,1.48.35c.42.23.74.58.96,1.06.23.47.34,1.08.34,1.83s-.12,1.35-.34,1.82c-.23.48-.55.83-.97,1.06-.42.23-.91.35-1.47.35M152.04,67.65c.32,0,.6-.07.83-.21.23-.14.41-.38.54-.71.13-.33.19-.78.19-1.36s-.06-1.04-.19-1.37c-.13-.33-.31-.57-.54-.71-.23-.14-.51-.21-.83-.21s-.6.07-.83.21c-.23.14-.41.37-.54.7-.13.33-.19.78-.19,1.36s.06,1.04.19,1.37c.12.33.31.57.54.71.23.14.52.21.84.21"/>
        <path class="cls-1" d="M156.12,68.48v-6.25h.99l.1.83h.06c.2-.3.46-.52.77-.67s.65-.22,1-.22c.09,0,.18,0,.26.01.08,0,.16.02.23.03v1.1c-.09-.02-.18-.03-.28-.03-.1,0-.19,0-.29,0-.2,0-.4.03-.61.09s-.4.15-.59.27c-.19.12-.34.27-.47.44v4.42h-1.2Z"/>
        <path class="cls-1" d="M160.43,68.48v-6.25h1l.09.69h.07c.23-.26.5-.46.81-.59.3-.13.63-.2.98-.2s.67.07.95.22c.28.15.5.39.66.72.16.33.24.77.24,1.32v4.09h-1.18v-4c0-.49-.1-.83-.29-1.02-.19-.19-.44-.28-.75-.28-.16,0-.32.03-.49.08-.17.05-.33.13-.48.24-.15.11-.29.26-.41.44v4.53h-1.2ZM167.6,68.48v-4c0-.49-.1-.83-.3-1.02-.2-.19-.46-.28-.77-.28-.16,0-.33.03-.51.08-.18.05-.35.14-.52.27-.17.13-.31.3-.43.51l-.28-.88c.3-.38.63-.65.99-.8.36-.16.71-.23,1.06-.23.38,0,.71.07,1,.22.29.15.52.39.69.72.17.34.25.78.25,1.34v4.05h-1.19Z"/>
        <path class="cls-1" d="M171.96,68.59c-.61,0-1.08-.15-1.42-.46-.34-.31-.51-.73-.51-1.27s.19-.99.56-1.3c.38-.31.98-.51,1.8-.58l1.57-.16.12.73-1.58.16c-.45.04-.78.15-.97.32-.2.17-.3.41-.3.71s.09.55.27.72c.18.17.45.25.8.25.24,0,.49-.05.73-.15.25-.1.47-.26.66-.5v-2.62c0-.35-.06-.63-.17-.82-.11-.2-.28-.33-.51-.41-.23-.08-.52-.12-.88-.12-.24,0-.51.02-.8.06-.3.04-.59.11-.89.21v-.94c.28-.09.59-.16.92-.2.34-.05.65-.07.95-.07.57,0,1.04.07,1.42.22.38.15.66.39.84.74.19.34.28.81.28,1.41v3.97h-.99l-.09-.67h-.07c-.2.26-.45.45-.76.58-.31.13-.64.2-1,.2"/>
        <path class="cls-1" d="M179.03,68.6c-.63,0-1.15-.12-1.59-.34-.43-.23-.76-.58-.99-1.06-.23-.47-.34-1.08-.34-1.83s.12-1.36.37-1.84c.24-.47.6-.82,1.06-1.05.47-.23,1.04-.34,1.71-.34.23,0,.45.01.68.04.22.03.43.06.64.12v.99c-.2-.05-.4-.09-.59-.11-.2-.03-.39-.04-.58-.04-.46,0-.84.07-1.14.22-.3.15-.53.38-.68.7-.15.32-.22.75-.22,1.3s.07.99.21,1.32c.14.33.35.57.62.71.28.14.61.22,1.02.22.2,0,.4-.02.62-.06.22-.04.46-.1.73-.18v.98c-.24.08-.49.14-.75.19-.26.05-.52.07-.78.07"/>
        <path class="cls-1" d="M182.26,61.02c-.26,0-.46-.06-.59-.18s-.2-.29-.2-.51.07-.39.2-.52c.13-.12.33-.18.59-.18s.46.06.59.18c.13.12.2.3.2.52s-.07.38-.2.51c-.13.12-.33.18-.59.18M181.66,62.24h1.2v6.25h-1.2v-6.25Z"/>
        <path class="cls-1" d="M186.95,68.6c-.56,0-1.05-.12-1.47-.35-.41-.23-.74-.58-.97-1.06-.23-.47-.35-1.08-.35-1.83s.11-1.36.34-1.83c.23-.47.55-.83.96-1.06.42-.23.91-.34,1.48-.34s1.06.11,1.48.34c.42.23.74.58.96,1.06.23.48.34,1.08.34,1.83s-.12,1.35-.34,1.83c-.23.48-.55.83-.97,1.06-.42.23-.91.35-1.47.35M186.95,67.65c.32,0,.6-.07.83-.21.23-.14.41-.38.54-.71.13-.33.19-.78.19-1.36s-.06-1.04-.19-1.37c-.13-.33-.31-.57-.54-.71-.23-.14-.51-.21-.83-.21s-.6.07-.83.21-.41.37-.54.7c-.13.33-.19.78-.19,1.36s.06,1.04.19,1.37c.12.33.31.57.54.71.23.14.51.21.84.21M186.4,61.32l1.25-2.12h1.28l-1.43,2.12h-1.1Z"/>
        <path class="cls-1" d="M191.03,68.48v-6.25h1l.09.68h.07c.24-.25.53-.45.86-.58.33-.13.69-.2,1.06-.2.4,0,.75.07,1.06.22.31.15.55.39.73.72.18.34.26.78.26,1.34v4.05h-1.2v-3.99c0-.49-.11-.83-.32-1.02-.21-.19-.5-.29-.86-.29-.17,0-.35.03-.53.07-.19.05-.37.13-.55.24-.18.11-.33.25-.47.42v4.56h-1.2Z"/>
        <path class="cls-1" d="M76.29,82.26v-8.37c.37-.07.74-.12,1.11-.16.38-.04.77-.06,1.19-.06,1.16,0,2.04.24,2.64.71.6.47.9,1.22.9,2.24,0,.96-.29,1.7-.88,2.2-.59.5-1.49.75-2.71.75-.18,0-.35,0-.51-.01-.16,0-.34-.02-.52-.03v2.73h-1.22ZM78.55,78.62c.83,0,1.43-.16,1.81-.48.38-.32.56-.82.56-1.5s-.18-1.22-.55-1.53c-.37-.32-.93-.48-1.69-.48-.22,0-.43,0-.61.02-.19.02-.38.04-.56.07v3.84c.17.02.34.04.51.05.17,0,.35.01.54.01"/>
        <path class="cls-1" d="M83.41,82.26v-6.25h.99l.1.83h.06c.2-.3.46-.52.77-.67.32-.15.65-.22,1-.22.09,0,.18,0,.26.01.09,0,.16.02.24.03v1.1c-.09-.02-.18-.03-.28-.03-.09,0-.19,0-.29,0-.2,0-.4.03-.61.09-.21.06-.4.15-.59.27-.18.12-.34.27-.46.44v4.42h-1.2Z"/>
        <path class="cls-1" d="M90.06,82.38c-.56,0-1.05-.12-1.47-.35-.42-.23-.74-.58-.97-1.06-.23-.48-.35-1.08-.35-1.83s.12-1.36.34-1.83c.23-.47.55-.83.96-1.06.41-.23.91-.35,1.48-.35s1.06.12,1.48.35c.42.23.74.58.96,1.06.23.48.34,1.08.34,1.83s-.12,1.35-.34,1.82c-.23.48-.55.83-.97,1.06-.42.23-.91.35-1.47.35M90.06,81.43c.32,0,.6-.07.83-.21.23-.14.41-.38.54-.71.13-.33.19-.78.19-1.36s-.06-1.04-.19-1.37c-.13-.33-.3-.57-.54-.71-.23-.14-.51-.21-.83-.21s-.6.07-.83.21c-.23.14-.41.37-.54.7-.13.33-.19.78-.19,1.36s.06,1.04.19,1.37c.12.33.31.57.54.71.23.14.52.21.84.21"/>
        <path class="cls-1" d="M93.24,76.02h4.19v.97h-4.19v-.97ZM96.48,82.37c-.67,0-1.19-.17-1.56-.51-.37-.34-.55-.89-.55-1.63v-4.21l.2-2.25h.99v6.27c0,.49.1.84.3,1.04.2.2.5.3.91.3.12,0,.23,0,.34-.02.12-.01.24-.04.39-.07v.99c-.16.03-.32.06-.5.09-.17.02-.35.03-.52.03"/>
        <path class="cls-1" d="M101.16,82.38c-.69,0-1.27-.11-1.73-.33-.46-.22-.81-.57-1.04-1.05-.23-.48-.35-1.1-.35-1.86,0-.72.11-1.32.32-1.79.21-.48.52-.83.91-1.07.39-.24.86-.35,1.41-.35s.99.12,1.36.35c.37.24.66.6.85,1.08.19.48.29,1.09.29,1.82v.35h-4.48v-.76h3.58l-.23.13c0-.53-.05-.95-.16-1.26-.11-.32-.26-.54-.47-.68-.2-.14-.46-.2-.75-.2s-.55.07-.76.2c-.21.13-.38.36-.49.67-.12.31-.17.74-.17,1.27v.45c0,.52.07.93.21,1.24.14.31.36.53.66.66.3.13.69.2,1.18.2.24,0,.49-.02.75-.06.26-.04.53-.1.81-.17v.94c-.31.09-.6.15-.88.18-.28.04-.56.06-.83.06"/>
        <path class="cls-1" d="M107.02,82.38c-.62,0-1.16-.12-1.59-.34-.43-.23-.76-.58-.99-1.06-.23-.47-.34-1.08-.34-1.83s.12-1.36.37-1.84c.24-.47.6-.82,1.06-1.05.47-.23,1.04-.34,1.71-.34.23,0,.46.01.68.04.22.03.43.06.64.12v.99c-.2-.05-.4-.09-.59-.11-.19-.03-.38-.04-.58-.04-.46,0-.84.07-1.14.22-.3.15-.53.38-.67.7-.15.32-.22.75-.22,1.3s.07.99.21,1.32c.14.33.35.57.62.71.28.14.62.22,1.02.22.2,0,.4-.02.62-.06.22-.04.46-.1.73-.18v.98c-.24.08-.49.14-.75.19-.26.05-.52.07-.79.07"/>
        <path class="cls-1" d="M112.14,82.38c-.62,0-1.16-.12-1.59-.34-.43-.23-.76-.58-.99-1.06-.23-.47-.34-1.08-.34-1.83s.12-1.36.37-1.84c.24-.47.6-.82,1.06-1.05.47-.23,1.04-.34,1.71-.34.23,0,.46.01.68.04.22.03.43.06.64.12v.99c-.2-.05-.4-.09-.59-.11-.19-.03-.38-.04-.58-.04-.46,0-.84.07-1.14.22-.3.15-.53.38-.67.7-.15.32-.22.75-.22,1.3s.07.99.21,1.32c.14.33.35.57.62.71.28.14.62.22,1.02.22.2,0,.4-.02.62-.06.22-.04.46-.1.73-.18v.98c-.24.08-.49.14-.75.19-.26.05-.52.07-.79.07"/>
        <path class="cls-1" d="M115.37,74.8c-.26,0-.46-.06-.59-.18-.14-.12-.2-.29-.2-.5s.06-.4.2-.52c.13-.12.33-.18.59-.18s.46.06.59.18c.13.12.2.29.2.52s-.07.38-.2.5c-.13.12-.33.18-.59.18M114.77,76.02h1.2v6.25h-1.2v-6.25Z"/>
        <path class="cls-1" d="M120.06,82.38c-.56,0-1.05-.12-1.47-.35-.41-.23-.74-.58-.97-1.06-.23-.47-.34-1.08-.34-1.83s.11-1.36.34-1.83c.23-.47.55-.83.96-1.06.42-.23.91-.34,1.48-.34s1.06.11,1.48.34c.41.23.73.58.96,1.06.23.48.34,1.08.34,1.83s-.11,1.35-.34,1.83c-.23.48-.55.83-.97,1.06-.42.23-.91.35-1.47.35M120.06,81.43c.32,0,.6-.07.83-.21.23-.14.41-.38.54-.71.13-.33.19-.78.19-1.36s-.06-1.04-.19-1.37c-.13-.33-.31-.57-.54-.71-.23-.14-.51-.21-.83-.21s-.6.07-.83.21c-.23.14-.41.37-.54.7-.13.33-.19.78-.19,1.36s.06,1.04.19,1.37c.12.33.3.57.54.71.24.14.52.21.84.21M119.51,75.1l1.25-2.12h1.29l-1.44,2.12h-1.1Z"/>
        <path class="cls-1" d="M124.14,82.26v-6.25h1l.09.68h.07c.25-.25.54-.45.87-.58.33-.13.68-.2,1.05-.2.4,0,.75.07,1.06.22.31.15.55.39.73.72.17.34.26.78.26,1.34v4.05h-1.2v-3.99c0-.49-.11-.83-.32-1.02-.21-.19-.5-.29-.86-.29-.17,0-.35.03-.53.07-.19.05-.37.13-.55.24-.17.11-.33.25-.46.42v4.56h-1.2Z"/>
        <path class="cls-1" d="M135.82,82.37c-.46,0-.87-.1-1.25-.31-.38-.21-.68-.54-.9-.99-.23-.45-.34-1.05-.34-1.8s.12-1.36.37-1.86c.25-.49.61-.87,1.09-1.12.48-.25,1.07-.37,1.78-.37.16,0,.32,0,.48.02.16.01.31.03.44.05v-3h1.2v9.28h-1.01l-.07-.67h-.07c-.18.23-.42.42-.71.56-.29.14-.62.22-1,.22M136.14,81.37c.25,0,.5-.05.74-.16.24-.11.45-.28.61-.51v-3.74c-.12-.03-.27-.06-.44-.07-.17-.02-.33-.03-.5-.03-.66,0-1.16.18-1.5.54-.34.35-.51.94-.51,1.77,0,.57.07,1.01.2,1.33.13.32.32.55.56.67.24.13.51.2.82.2"/>
        <path class="cls-1" d="M143.1,82.38c-.69,0-1.27-.11-1.73-.33-.46-.22-.81-.57-1.04-1.05-.23-.48-.34-1.1-.34-1.86,0-.72.11-1.32.32-1.79s.52-.83.91-1.07c.39-.24.87-.35,1.41-.35s.99.12,1.36.35c.37.24.66.6.85,1.08.19.48.29,1.09.29,1.82v.35h-4.48v-.76h3.58l-.23.13c0-.53-.05-.95-.16-1.26-.11-.32-.26-.54-.47-.68-.21-.14-.46-.2-.75-.2s-.55.07-.76.2-.38.36-.49.67c-.12.31-.17.74-.17,1.27v.45c0,.52.07.93.21,1.24.14.31.36.53.67.66.3.13.69.2,1.18.2.24,0,.49-.02.75-.06.26-.04.53-.1.81-.17v.94c-.31.09-.61.15-.88.18-.28.04-.56.06-.83.06"/>
        <path class="cls-1" d="M151.4,82.34c-.22,0-.44,0-.67-.01-.23-.01-.46-.02-.7-.04-.24-.02-.49-.04-.74-.07v-8.29c.24-.05.49-.09.76-.13.27-.03.53-.06.81-.08.27-.02.54-.03.8-.03,1.45,0,2.54.35,3.27,1.06.73.71,1.1,1.8,1.1,3.28,0,1-.17,1.82-.52,2.46-.34.64-.86,1.11-1.55,1.41-.69.3-1.54.45-2.57.45M151.67,81.32c.69,0,1.27-.11,1.73-.34s.8-.58,1.04-1.07c.23-.49.34-1.12.34-1.91s-.11-1.42-.34-1.9c-.23-.49-.57-.85-1.02-1.07-.46-.23-1.02-.34-1.7-.34-.19,0-.39,0-.59.03-.21.02-.42.04-.62.08v6.47c.19.02.38.03.56.05.19.01.39.02.61.02"/>
        <path class="cls-1" d="M158.98,82.37c-.61,0-1.08-.15-1.42-.46-.34-.31-.51-.73-.51-1.27s.19-.99.56-1.3c.38-.31.98-.51,1.8-.58l1.57-.16.12.73-1.58.16c-.45.04-.78.15-.97.32-.2.17-.3.41-.3.71s.09.55.27.72c.18.17.45.25.8.25.24,0,.49-.05.73-.15.25-.1.47-.26.66-.5v-2.62c0-.35-.06-.63-.17-.82-.11-.2-.28-.33-.51-.41-.23-.08-.52-.12-.88-.12-.24,0-.51.02-.8.06-.3.04-.59.11-.89.21v-.94c.28-.09.59-.16.92-.2.34-.05.65-.07.95-.07.57,0,1.04.07,1.42.22.38.15.66.39.84.74.19.34.28.81.28,1.41v3.97h-.99l-.09-.67h-.07c-.2.26-.45.45-.76.58-.31.13-.64.2-1,.2"/>
        <path class="cls-1" d="M162.71,76.02h4.19v.97h-4.19v-.97ZM165.96,82.37c-.67,0-1.19-.17-1.56-.51-.37-.34-.55-.89-.55-1.63v-4.21l.2-2.25h.99v6.27c0,.49.1.84.3,1.04.2.2.5.3.91.3.12,0,.23,0,.34-.02.12-.01.24-.04.39-.07v.99c-.16.03-.32.06-.5.09-.17.02-.35.03-.52.03"/>
        <path class="cls-1" d="M170.31,82.38c-.56,0-1.05-.12-1.47-.35-.41-.23-.74-.58-.97-1.06-.23-.48-.34-1.08-.34-1.83s.11-1.36.34-1.83c.23-.47.55-.83.96-1.06.41-.23.91-.35,1.48-.35s1.06.12,1.48.35c.41.23.74.58.96,1.06.23.48.34,1.08.34,1.83s-.11,1.35-.34,1.82c-.23.48-.55.83-.97,1.06-.42.23-.91.35-1.47.35M170.31,81.43c.32,0,.6-.07.83-.21.23-.14.41-.38.54-.71.13-.33.19-.78.19-1.36s-.06-1.04-.19-1.37c-.13-.33-.31-.57-.54-.71-.23-.14-.51-.21-.83-.21s-.6.07-.83.21c-.23.14-.41.37-.54.7-.13.33-.19.78-.19,1.36s.06,1.04.19,1.37.3.57.54.71c.24.14.52.21.84.21"/>
        <path class="cls-1" d="M175.99,82.38c-.33,0-.64-.02-.94-.07-.3-.04-.59-.11-.87-.19v-.92c.31.09.61.15.9.2.3.04.6.07.91.07.5,0,.86-.08,1.08-.24.22-.16.33-.39.33-.68,0-.25-.06-.43-.19-.56-.13-.13-.34-.22-.65-.29l-.9-.18c-.58-.12-.99-.32-1.24-.61-.25-.29-.38-.66-.38-1.12,0-.55.22-1,.64-1.34.43-.35,1.09-.52,1.98-.52.27,0,.54.02.8.05.26.03.5.08.73.14v.92c-.25-.07-.49-.12-.74-.15-.24-.03-.5-.05-.76-.05-.38,0-.68.04-.9.12-.22.08-.38.19-.47.33-.09.14-.14.29-.14.46,0,.21.06.38.18.52.12.14.33.24.64.31l.9.17c.57.12.99.31,1.25.58.26.27.39.66.39,1.15,0,.58-.22,1.04-.65,1.38-.43.34-1.07.51-1.89.51"/>
        <path class="cls-1" d="M182.63,82.26v-8.37c.37-.07.74-.12,1.11-.16.38-.04.77-.06,1.19-.06,1.16,0,2.04.24,2.64.71.6.47.9,1.22.9,2.24,0,.96-.29,1.7-.88,2.2-.59.5-1.49.75-2.71.75-.18,0-.35,0-.51-.01-.16,0-.34-.02-.52-.03v2.73h-1.22ZM184.89,78.62c.83,0,1.43-.16,1.81-.48.38-.32.56-.82.56-1.5s-.18-1.22-.55-1.53c-.37-.32-.93-.48-1.69-.48-.22,0-.43,0-.61.02-.19.02-.38.04-.56.07v3.84c.17.02.34.04.51.05.17,0,.35.01.54.01"/>
        <path class="cls-1" d="M192.45,82.38c-.69,0-1.27-.11-1.73-.33-.46-.22-.81-.57-1.04-1.05-.23-.48-.34-1.1-.34-1.86,0-.72.11-1.32.32-1.79.21-.48.52-.83.91-1.07.39-.24.87-.35,1.41-.35s.99.12,1.36.35c.37.24.66.6.85,1.08.19.48.29,1.09.29,1.82v.35h-4.48v-.76h3.58l-.23.13c0-.53-.05-.95-.16-1.26-.11-.32-.26-.54-.47-.68-.21-.14-.46-.2-.75-.2s-.55.07-.76.2-.38.36-.49.67c-.12.31-.17.74-.17,1.27v.45c0,.52.07.93.21,1.24.14.31.36.53.67.66.3.13.69.2,1.18.2.24,0,.49-.02.75-.06.26-.04.53-.1.81-.17v.94c-.31.09-.61.15-.88.18-.28.04-.56.06-.83.06"/>
        <path class="cls-1" d="M195.71,82.26v-6.25h.99l.1.83h.06c.2-.3.46-.52.77-.67.32-.15.65-.22,1-.22.09,0,.18,0,.26.01.09,0,.16.02.24.03v1.1c-.09-.02-.18-.03-.28-.03-.09,0-.19,0-.29,0-.2,0-.4.03-.61.09-.21.06-.4.15-.59.27-.18.12-.34.27-.46.44v4.42h-1.2Z"/>
        <path class="cls-1" d="M201.57,82.38c-.33,0-.64-.02-.94-.07-.3-.04-.59-.11-.87-.19v-.92c.31.09.61.15.9.2.3.04.6.07.9.07.5,0,.86-.08,1.08-.24.22-.16.33-.39.33-.68,0-.25-.06-.43-.19-.56-.12-.13-.34-.22-.65-.29l-.9-.18c-.58-.12-.99-.32-1.24-.61-.25-.29-.38-.66-.38-1.12,0-.55.22-1,.64-1.34.43-.35,1.09-.52,1.98-.52.27,0,.54.02.8.05.26.03.5.08.73.14v.92c-.25-.07-.5-.12-.74-.15-.24-.03-.5-.05-.76-.05-.38,0-.68.04-.9.12-.22.08-.38.19-.47.33-.09.14-.14.29-.14.46,0,.21.06.38.18.52.12.14.33.24.64.31l.9.17c.57.12.99.31,1.25.58.26.27.39.66.39,1.15,0,.58-.22,1.04-.65,1.38-.43.34-1.07.51-1.89.51"/>
        <path class="cls-1" d="M207.75,82.38c-.56,0-1.05-.12-1.47-.35-.42-.23-.74-.58-.97-1.06-.23-.48-.35-1.08-.35-1.83s.12-1.36.34-1.83c.23-.47.55-.83.96-1.06.41-.23.91-.35,1.48-.35s1.06.12,1.48.35c.42.23.74.58.96,1.06.23.48.34,1.08.34,1.83s-.12,1.35-.34,1.82c-.23.48-.55.83-.97,1.06-.42.23-.91.35-1.47.35M207.75,81.43c.32,0,.6-.07.83-.21.23-.14.41-.38.54-.71.13-.33.19-.78.19-1.36s-.06-1.04-.19-1.37c-.13-.33-.3-.57-.54-.71-.23-.14-.51-.21-.83-.21s-.6.07-.83.21c-.23.14-.41.37-.54.7-.13.33-.19.78-.19,1.36s.06,1.04.19,1.37.31.57.54.71c.23.14.52.21.84.21"/>
        <path class="cls-1" d="M211.83,82.26v-6.25h1l.09.68h.07c.25-.25.53-.45.86-.58.33-.13.69-.2,1.06-.2.4,0,.75.07,1.06.22.31.15.55.39.73.72.17.34.26.78.26,1.34v4.05h-1.2v-3.99c0-.49-.11-.83-.32-1.02-.21-.19-.5-.29-.86-.29-.17,0-.35.03-.53.07-.19.05-.37.13-.55.24-.18.11-.33.25-.47.42v4.56h-1.2Z"/>
        <path class="cls-1" d="M220.11,82.37c-.61,0-1.08-.15-1.42-.46-.34-.31-.51-.73-.51-1.27s.19-.99.56-1.3c.38-.31.98-.51,1.8-.58l1.57-.16.12.73-1.58.16c-.45.04-.78.15-.97.32-.2.17-.3.41-.3.71s.09.55.27.72c.18.17.45.25.8.25.24,0,.49-.05.73-.15.25-.1.47-.26.66-.5v-2.62c0-.35-.06-.63-.17-.82-.11-.2-.28-.33-.51-.41-.23-.08-.52-.12-.88-.12-.24,0-.51.02-.8.06-.3.04-.59.11-.89.21v-.94c.28-.09.59-.16.92-.2.34-.05.65-.07.95-.07.57,0,1.04.07,1.42.22.38.15.66.39.84.74.19.34.28.81.28,1.41v3.97h-.99l-.09-.67h-.07c-.2.26-.45.45-.76.58-.31.13-.64.2-1,.2"/>
        <rect class="cls-1" x="224.58" y="72.99" width="1.2" height="9.28"/>
        <path class="cls-1" d="M230.19,82.38c-.69,0-1.27-.11-1.73-.33-.46-.22-.81-.57-1.04-1.05-.23-.48-.34-1.1-.34-1.86,0-.72.11-1.32.32-1.79.21-.48.52-.83.91-1.07.39-.24.87-.35,1.41-.35s.99.12,1.36.35c.37.24.66.6.85,1.08.19.48.29,1.09.29,1.82v.35h-4.48v-.76h3.58l-.23.13c0-.53-.05-.95-.16-1.26-.11-.32-.26-.54-.47-.68-.21-.14-.46-.2-.75-.2s-.55.07-.76.2-.38.36-.49.67c-.12.31-.17.74-.17,1.27v.45c0,.52.07.93.21,1.24.14.31.36.53.67.66.3.13.69.2,1.18.2.24,0,.49-.02.75-.06.26-.04.53-.1.81-.17v.94c-.31.09-.61.15-.88.18-.28.04-.56.06-.83.06"/>
        <path class="cls-1" d="M235.05,82.38c-.33,0-.64-.02-.94-.07-.3-.04-.59-.11-.87-.19v-.92c.31.09.61.15.9.2.3.04.6.07.9.07.5,0,.86-.08,1.08-.24.22-.16.33-.39.33-.68,0-.25-.06-.43-.19-.56-.13-.13-.34-.22-.65-.29l-.9-.18c-.58-.12-.99-.32-1.24-.61-.25-.29-.38-.66-.38-1.12,0-.55.22-1,.64-1.34.43-.35,1.09-.52,1.98-.52.27,0,.54.02.8.05.26.03.5.08.73.14v.92c-.25-.07-.5-.12-.74-.15-.24-.03-.5-.05-.76-.05-.38,0-.68.04-.9.12-.22.08-.38.19-.47.33-.09.14-.14.29-.14.46,0,.21.06.38.18.52.12.14.33.24.64.31l.9.17c.57.12.99.31,1.25.58.26.27.39.66.39,1.15,0,.58-.22,1.04-.65,1.38-.43.34-1.07.51-1.89.51"/>
        <path class="cls-1" d="M37.93,86.02h.25c5.05,0,7.29-3.86,7.29-7.78V23.71c-.03-.92.22-2.21-1.24-2.4h-.25c-5.06,0-7.3,3.86-7.3,7.78v54.53c.03.92-.22,2.21,1.24,2.4"/>
        <path class="cls-1" d="M32.1,13.98h-.25c-5.05,0-7.29,3.86-7.29,7.78v11.76-9.31,47.14c0,3.92,2.24,7.78,7.29,7.78h.25c1.47-.19,1.21-1.47,1.24-2.4V22.45v16.44-22.52c-.03-.92.22-2.21-1.24-2.4"/>
        <path class="cls-1" d="M50.14,78.82h.25c5.05,0,7.29-3.86,7.29-7.78v-27.79c-.03-.92.22-2.21-1.24-2.4h-.24c-5.06,0-7.3,3.86-7.3,7.78v27.79c.03.92-.22,2.21,1.24,2.4"/>
        <path class="cls-1" d="M48.9,25.46v-9.08c.03-.92-.22-2.21,1.24-2.4h.24c5.06,0,7.3,3.86,7.3,7.78v3.7-4.48,8.17-6.24,7.51c0,3.92-2.24,7.78-7.3,7.78h-.24c-1.47-.19-1.21-1.47-1.24-2.4v-19.19,5.86"/>
        <path class="cls-1" d="M19.95,26.35h-.25c-5.05,0-7.29,3.86-7.29,7.78v7.22-1.91,10.82-4.49,13.29c0,3.92,2.24,7.78,7.29,7.78h.25c1.47-.18,1.21-1.47,1.24-2.4v-7.86.37-28.2c-.03-.92.22-2.21-1.24-2.4"/>
      </g>
    </g>
  </g>
</svg>