<svg version="1.1" id="Layer_1" xmlns="http://www.w3.org/2000/svg" x="0" y="0" viewBox="0 0 205 205" xml:space="preserve"><path d="M0 0v204.5h204.5V0H0zm198.5 198.5H6V6h192.5v192.5z"/><path d="M52.2 102.6c9.1 0 14.7-3.3 19.8-8.6l-5.5-5.6c-4.2 3.9-8 6.3-14 6.3-9.3 0-16.1-7.8-16.1-17.3v-.1c0-9.5 6.7-17.2 16.1-17.2 5.6 0 9.7 2.4 13.6 6l5.5-6.3c-4.7-4.5-10.1-7.6-19.1-7.6-14.8 0-25.1 11.3-25.1 25.2v.1c0 14.1 10.6 25.1 24.8 25.1zm51.1-11.7v10.9h8.2v-11h7v-7h-7v-31h-7.3l-27.1 32 1.6 6.1h24.6zm0-26.3v19.3h-16l16-19.3zm48.2 38c15 0 25.5-11.5 25.5-25.2v-.1c0-13.7-10.4-25-25.4-25-15 0-25.5 11.5-25.5 25.2v.1c0 13.6 10.4 25 25.4 25zm-16.4-25.3c0-9.5 6.8-17.2 16.5-17.2s16.6 7.9 16.6 17.3v.1c0 9.4-6.8 17.2-16.4 17.2-9.7 0-16.6-7.9-16.6-17.3v-.1zM27.4 136c.1 9.1 7.5 16.3 16.6 16.2 5.1.2 9.9-2 13.2-5.8l-3.7-3.7c-2.8 2.6-5.3 4.2-9.3 4.2-6.2 0-10.8-5.2-10.8-11.6v-.1c0-6.4 4.5-11.5 10.8-11.5 3.7 0 6.5 1.6 9.1 4.1l3.7-4.2c-3.4-3.4-8-5.3-12.8-5.1h-.7c-9.1.2-16.3 7.8-16.1 16.9v.6zm36.1-16.9h5.7v32.6h-5.7zm22.4 32.5h5.8v-27.2H102v-5.3H75.6v5.3h10.3zm22.5-32.5h5.7v32.6h-5.7zm38.8 27.4h-18.6v-8.7h16.3v-5.1h-16.3v-8.5H147v-5.1h-24.2v32.5h24.4zm19.4-13.8c-6.2-1.5-7.7-2.6-7.7-5.1v-.1c0-2.2 1.9-3.9 5.3-3.9 3.2.1 6.3 1.3 8.8 3.3l3.1-4.3c-3.3-2.7-7.5-4.2-11.8-4.1-6.5 0-11.1 3.9-11.1 9.4v.1c0 6 3.9 8.1 10.8 9.7 6.1 1.4 7.4 2.7 7.4 5v.1c0 2.5-2.2 4.1-5.8 4.1-4 0-7.2-1.5-10.3-4.2l-3.4 4.1c3.7 3.4 8.6 5.2 13.6 5.2 6.8 0 11.6-3.6 11.6-9.7v-.1c-.1-5.3-3.6-7.8-10.5-9.5zm-14.8 14.2z"/></svg>